<?xml version="1.0" encoding="utf-8"?>
<!-- Generator: Adobe Illustrator 28.0.0, SVG Export Plug-In . SVG Version: 6.00 Build 0)  -->
<svg version="1.1" id="Layer_1" xmlns="http://www.w3.org/2000/svg" xmlns:xlink="http://www.w3.org/1999/xlink" x="0px" y="0px"
	 viewBox="0 0 500 500" style="enable-background:new 0 0 500 500;" xml:space="preserve">
<style type="text/css">
	.st0{fill:#FFFFFF;}
</style>
<g>
	<polygon class="st0" points="179.8,300.7 164.2,351.4 146.5,351.4 162.1,300.7 	"/>
	<path class="st0" d="M408.3,152.8c-28.8-1.9-32.8-6.2-25.3-31c0.3-1-1.1-1.5-1.6-0.6c-11.8,25.6-19,29.7-49.9,31.1
		c-1,0.1-1.1,1.7-0.1,1.7c36.5,0.2,30.6,15.1,22.5,42.4c-0.3,1,1.1,1.5,1.6,0.6c12.4-27.7,21.6-39.2,52.9-42.4
		C409.4,154.4,409.4,152.9,408.3,152.8L408.3,152.8z"/>
	<g>
		<path class="st0" d="M336.2,172.8l-10.8,35H249h-23.6l18.8,14.1l20.7,15.5l57,42.8c0.1,0.1,0.2,0.2,0.3,0.2l1.2,0.9
			c0.7,0.7,1.4,1.2,2,1.8c0.5,0.5,1.1,0.9,1.4,1.3c1,1,2,2.1,2.8,3.2c1.8,2.3,3.2,4.8,4.4,7.4c0.8,1.9,1.4,3.8,1.8,5.6
			c0.1,0.5,0.2,1,0.3,1.6c0.2,1.3,0.3,2.3,0.2,2.9c0,0.2-0.1,0.5-0.1,0.7c-0.5,1.8-1,3.6-1.7,5.6c-0.3,1-0.6,1.9-0.9,2.9l-2.4,7.7
			l-5,16.1l-0.6,2l-1.1,3.7H184.9l10.8-35h70.5h23.5L271,294.4l-5.1-3.8L205.1,245l-3.8-2.9c-8.1-6.9-13-16.5-13.8-27.1
			c-0.1-0.9-0.1-1.9-0.1-2.9c0-11.6,5.1-22.6,14-30.1c7.1-6,16-9.2,25.3-9.2H336.2 M346.9,164.9H226.6c-11.6,0-22.2,4.2-30.4,11.1
			c-10.3,8.6-16.8,21.6-16.8,36.1c0,1.2,0,2.4,0.1,3.6c1,13.1,7.3,24.7,16.8,32.6l4,3l60.8,45.6l5.1,3.8h-76.3l-15.6,50.7h156.2
			c0,0,0.2-0.8,0.3-0.8c1.1-3.5,2.1-6.9,3.2-10.4c1.7-5.4,3.3-10.7,5-16.1c0.8-2.6,1.6-5.1,2.4-7.7c0.9-2.9,2-5.9,2.7-8.9
			c0.1-0.5,0.2-0.9,0.3-1.4c0.3-1.8,0.1-3.7-0.3-5.5c-0.1-0.6-0.2-1.2-0.4-1.8c-0.5-2.4-1.3-4.8-2.3-7c-1.4-3.2-3.2-6.3-5.4-9.1
			c-1.1-1.4-2.2-2.7-3.5-3.9c-1.2-1.2-2.6-2.2-3.8-3.4c0,0-0.1-0.1-0.1-0.1l-1.6-1.2c0,0-0.1-0.1-0.1-0.1l-57.1-42.8L249,215.6h82.2
			L346.9,164.9L346.9,164.9z"/>
	</g>
</g>
</svg>
