<?xml version="1.0" encoding="UTF-8"?>
<svg id="Layer_1" data-name="Layer 1" xmlns="http://www.w3.org/2000/svg" viewBox="0 0 500 500">
  <defs>
    <style>
      .cls-1 {
        fill: #fff;
        stroke-width: 0px;
      }
    </style>
  </defs>
  <g>
    <path class="cls-1" d="m176.18,195.47l-8.07,26.18h-52.12l4.21,3.16s12.12,9.09,12.12,9.09c2.33,1.75,4.67,3.5,7,5.26l14.15,10.62c3.67,2.75,7.43,5.41,11.01,8.27,2.25,1.79,4.45,3.43,6.24,5.72,2.07,2.66,3.57,5.77,4.32,9.05.62,2.7-.07,4.88-.9,7.44-.18.55-.36,1.1-.53,1.65l-.69,2.25-.69,2.25-2.9,9.42-.94,3.04-.7,2.28h-87.81l8.07-26.18h48.65l-4.21-3.16-3-2.25-35.6-26.72-2.29-1.72c-5.39-4.52-8.64-10.86-9.16-17.86-.05-.62-.07-1.28-.07-1.95,0-7.64,3.35-14.85,9.2-19.78,4.64-3.92,10.55-6.08,16.65-6.08h68.05m2.38-1.76h-70.43c-6.77,0-12.98,2.44-17.78,6.49-6.01,5.06-9.83,12.64-9.83,21.12,0,.7.02,1.39.08,2.08.57,7.66,4.27,14.45,9.82,19.1l2.33,1.75,35.6,26.72,3,2.25h-44.69l-9.15,29.7h91.49s.14-.45.15-.48c.62-2.03,1.25-4.05,1.87-6.08.97-3.14,1.94-6.28,2.9-9.42.46-1.5.92-3,1.39-4.5.53-1.72,1.14-3.44,1.58-5.19.07-.27.13-.54.17-.82.52-3.42-1.19-7.54-2.8-10.48-2.5-4.56-6.39-7.57-10.44-10.61-3.88-2.91-7.76-5.83-11.64-8.74-4.3-3.23-8.6-6.46-12.9-9.69-1.96-1.47-3.93-2.95-5.89-4.42l-12.12-9.09h48.14l9.15-29.69Z"/>
    <polygon class="cls-1" points="80.73 273.22 71.58 302.92 61.22 302.92 70.37 273.22 80.73 273.22"/>
    <path class="cls-1" d="m214.54,186.64c-16.84-1.09-19.2-3.61-14.84-18.18.17-.58-.66-.89-.92-.34-6.91,14.98-11.13,17.39-29.22,18.19-.6.03-.64.97-.04.97,21.38.13,17.91,8.86,13.16,24.81-.18.59.67.9.92.34,7.26-16.23,12.65-22.94,30.97-24.81.6-.06.57-.94-.02-.97Z"/>
  </g>
  <g>
    <path class="cls-1" d="m222.79,273.88c-1.96,0-3.78-.24-5.48-.72-1.7-.48-3.21-1.15-4.54-2.02-1.33-.87-2.43-1.83-3.29-2.91-.87-1.07-1.43-2.19-1.69-3.38l7.42-2.21c.48,1.26,1.33,2.33,2.55,3.24,1.22.91,2.75,1.38,4.59,1.41,1.96.04,3.55-.39,4.79-1.27,1.24-.89,1.85-2.03,1.85-3.43,0-1.22-.49-2.24-1.47-3.07-.98-.83-2.32-1.47-4.01-1.91l-5.04-1.33c-1.88-.48-3.54-1.21-4.98-2.19-1.44-.98-2.57-2.19-3.38-3.63-.81-1.44-1.22-3.12-1.22-5.04,0-3.65,1.21-6.5,3.63-8.55,2.42-2.05,5.84-3.07,10.27-3.07,2.47,0,4.64.36,6.5,1.08,1.86.72,3.42,1.74,4.68,3.07,1.25,1.33,2.21,2.9,2.88,4.71l-7.36,2.27c-.44-1.25-1.26-2.33-2.44-3.21-1.18-.89-2.68-1.33-4.48-1.33s-3.29.42-4.35,1.27c-1.05.85-1.58,2.05-1.58,3.6,0,1.22.42,2.18,1.25,2.88.83.7,1.97,1.24,3.4,1.61l5.09,1.27c3.32.81,5.9,2.27,7.75,4.37,1.84,2.1,2.77,4.45,2.77,7.03,0,2.29-.55,4.29-1.66,6.01s-2.71,3.05-4.82,4.01c-2.1.96-4.65,1.44-7.64,1.44Z"/>
    <path class="cls-1" d="m251.57,273.22v-31.83h-11.62v-6.92h30.78v6.92h-11.57v31.83h-7.58Z"/>
    <path class="cls-1" d="m275.71,273.22v-38.75h24.52v6.92h-16.94v8.8h14.61v6.75h-14.61v9.36h17.16v6.92h-24.74Z"/>
    <path class="cls-1" d="m308.31,273.22v-38.75h7.58v31.83h17.05v6.92h-24.63Z"/>
    <path class="cls-1" d="m338.04,273.22v-38.75h7.58v31.83h17.05v6.92h-24.63Z"/>
    <path class="cls-1" d="m364,273.22l15.28-38.75h7.58l-14.84,38.75h-8.03Zm7.2-8.52v-6.7h24.3v6.7h-24.3Zm23.42,8.52l-14.83-38.75h7.58l15.28,38.75h-8.03Z"/>
    <path class="cls-1" d="m407.29,273.22v-38.75h14.39c2.73,0,5.15.54,7.25,1.61,2.1,1.07,3.75,2.54,4.93,4.4s1.77,4.03,1.77,6.5-.62,4.6-1.85,6.5c-1.24,1.9-2.92,3.38-5.06,4.43-2.14,1.05-4.58,1.58-7.31,1.58h-6.53v13.73h-7.58Zm7.58-20.65h6.86c1.14,0,2.17-.24,3.07-.72.9-.48,1.62-1.14,2.16-1.99.54-.85.8-1.81.8-2.88,0-1.66-.6-3.01-1.8-4.04s-2.74-1.55-4.62-1.55h-6.48v11.18Zm13.73,20.65l-8.97-15.55,5.81-4.15,11.74,19.71h-8.58Z"/>
  </g>
</svg>