<svg width="291" height="322" viewBox="0 0 291 322" fill="none" xmlns="http://www.w3.org/2000/svg">
<path d="M18.2698 321.08C15.8825 321.08 13.6658 320.84 11.5952 320.36C9.52465 319.88 7.6855 319.21 6.06558 318.34C4.44566 317.47 3.10587 316.51 2.0584 315.43C0.998751 314.36 0.316676 313.24 0 312.05L9.03747 309.84C9.6221 311.1 10.6574 312.17 12.1433 313.08C13.6293 313.99 15.4928 314.46 17.7339 314.49C20.1211 314.53 22.0577 314.1 23.568 313.22C25.0783 312.34 25.8213 311.19 25.8213 309.79C25.8213 308.57 25.2245 307.55 24.0309 306.72C22.8372 305.89 21.2051 305.25 19.1467 304.81L13.0081 303.48C10.7183 303 8.69643 302.27 6.94253 301.29C5.18863 300.31 3.8123 299.1 2.82574 297.66C1.83917 296.22 1.33979 294.54 1.33979 292.62C1.33979 288.97 2.81356 286.12 5.76108 284.07C8.70861 282.02 12.8741 281 18.2698 281C21.2782 281 23.9212 281.36 26.1867 282.08C28.4521 282.8 30.3522 283.82 31.8869 285.15C33.4094 286.48 34.5786 288.05 35.3947 289.86L26.4303 292.13C25.8944 290.88 24.9078 289.8 23.4584 288.92C22.0212 288.03 20.1942 287.59 18.0018 287.59C15.8095 287.59 13.9947 288.01 12.7036 288.86C11.4247 289.71 10.7792 290.91 10.7792 292.46C10.7792 293.68 11.2907 294.64 12.3017 295.34C13.3126 296.04 14.6889 296.58 16.4428 296.95L22.6424 298.22C26.6861 299.03 29.8285 300.49 32.0818 302.59C34.3228 304.69 35.4556 307.04 35.4556 309.62C35.4556 311.91 34.7857 313.91 33.4337 315.63C32.0818 317.35 30.133 318.68 27.563 319.64C25.0052 320.6 21.8994 321.08 18.2576 321.08H18.2698Z" fill="white"/>
<path d="M53.3197 320.42V288.59H39.1667V281.67H76.6563V288.59H62.5642V320.42H53.3319H53.3197Z" fill="white"/>
<path d="M82.7271 320.42V281.67H112.592V288.59H91.9594V297.39H109.754V304.14H91.9594V313.5H112.86V320.42H82.7271Z" fill="white"/>
<path d="M122.432 320.42V281.67H131.664V313.5H152.431V320.42H122.432Z" fill="white"/>
<path d="M158.644 320.42V281.67H167.876V313.5H188.643V320.42H158.644Z" fill="white"/>
<path d="M190.261 320.42L208.872 281.67H218.104L200.029 320.42H190.249H190.261ZM199.03 311.9V305.2H228.627V311.9H199.03ZM227.555 320.42L209.493 281.67H218.725L237.336 320.42H227.555Z" fill="white"/>
<path d="M242.985 320.42V281.67H260.511C263.837 281.67 266.784 282.21 269.342 283.28C271.9 284.35 273.909 285.82 275.346 287.68C276.784 289.54 277.502 291.71 277.502 294.18C277.502 296.65 276.747 298.78 275.249 300.68C273.739 302.58 271.693 304.06 269.086 305.11C266.48 306.16 263.508 306.69 260.183 306.69H252.229V320.42H242.997H242.985ZM252.217 299.77H260.572C261.961 299.77 263.215 299.53 264.312 299.05C265.408 298.57 266.285 297.91 266.942 297.06C267.6 296.21 267.917 295.25 267.917 294.18C267.917 292.52 267.186 291.17 265.724 290.14C264.263 289.11 262.387 288.59 260.097 288.59H252.205V299.77H252.217ZM268.94 320.42L258.015 304.87L265.091 300.72L279.39 320.43H268.94V320.42Z" fill="white"/>
<path d="M61.33 179.981L45.7 230.701H28L43.63 179.981H61.33Z" fill="#4461F2"/>
<path d="M225.54 179.991C225.88 181.801 226.09 183.681 225.82 185.481C225.75 185.951 225.64 186.411 225.52 186.871C224.76 189.861 223.72 192.781 222.81 195.731C222.02 198.291 221.23 200.861 220.44 203.421C218.79 208.781 217.14 214.141 215.48 219.511C214.41 222.971 213.35 226.431 212.28 229.891C212.26 229.941 212.07 230.701 212.03 230.701H55.8L71.43 179.981H147.75L142.64 176.141L81.8501 130.511L77.87 127.531C68.38 119.591 62.0701 108.001 61.1001 94.9208C61.0101 93.7408 60.97 92.5508 60.97 91.3608C60.97 76.8808 67.49 63.9408 77.75 55.3008C85.95 48.3808 96.55 44.2208 108.11 44.2208H228.38L212.75 94.9308H130.53L151.22 110.461L208.27 153.291C208.27 153.291 208.35 153.351 208.39 153.371L210.04 154.611C210.04 154.611 210.12 154.671 210.15 154.701C211.36 155.911 212.78 156.911 213.99 158.131C215.23 159.371 216.38 160.691 217.46 162.081C219.62 164.871 221.44 167.921 222.85 171.151C223.84 173.421 224.64 175.771 225.17 178.191C225.3 178.781 225.43 179.391 225.54 180.001V179.991Z" fill="white"/>
<path d="M289.83 32.1209C261.08 30.2509 257.04 25.9609 264.49 1.07089C264.79 0.0808939 263.36 -0.449108 262.93 0.490892C251.12 26.0709 243.93 30.1809 213.03 31.5509C212.01 31.6009 211.94 33.2109 212.96 33.2109C249.46 33.4309 243.54 48.3409 235.43 75.5809C235.13 76.5809 236.57 77.1109 237 76.1609C249.39 48.4409 258.61 36.9909 289.89 33.7909C290.91 33.6909 290.87 32.1909 289.85 32.1309L289.83 32.1209Z" fill="#4461F2"/>
</svg>
