<?xml version="1.0" encoding="UTF-8"?>
<svg id="Layer_1" data-name="Layer 1" xmlns="http://www.w3.org/2000/svg" viewBox="0 0 500 500">
  <defs>
    <style>
      .cls-1 {
        fill: #fff;
      }

      .cls-1, .cls-2 {
        stroke-width: 0px;
      }

      .cls-2 {
        fill: #4461f2;
      }
    </style>
  </defs>
  <g>
    <path class="cls-1" d="m176.89,273.23c.2,1.06.32,2.16.16,3.21-.04.27-.1.55-.17.82-.44,1.75-1.05,3.46-1.58,5.19l-1.39,4.5c-.97,3.14-1.94,6.28-2.9,9.42-.62,2.03-1.25,4.05-1.87,6.08,0,.03-.12.48-.15.48h-91.49l9.15-29.7h44.69l-3-2.25-35.6-26.72-2.33-1.75c-5.55-4.65-9.25-11.44-9.82-19.1-.05-.69-.08-1.39-.08-2.08,0-8.48,3.82-16.06,9.83-21.12,4.8-4.05,11.01-6.49,17.78-6.49h70.43l-9.15,29.69h-48.14l12.12,9.09,33.41,25.08s.04.03.07.05l.96.72s.04.03.06.05c.71.71,1.54,1.29,2.25,2.01s1.4,1.5,2.03,2.31c1.27,1.63,2.33,3.42,3.15,5.31.58,1.33,1.05,2.71,1.36,4.13.08.35.15.7.22,1.06Z"/>
    <polygon class="cls-2" points="80.73 273.22 71.58 302.92 61.22 302.92 70.37 273.22 80.73 273.22"/>
    <path class="cls-2" d="m214.54,186.64c-16.84-1.09-19.2-3.61-14.84-18.18.17-.58-.66-.89-.92-.34-6.91,14.98-11.13,17.39-29.22,18.19-.6.03-.64.97-.04.97,21.38.13,17.91,8.86,13.16,24.81-.18.59.67.9.92.34,7.26-16.23,12.65-22.94,30.97-24.81.6-.06.57-.94-.02-.97Z"/>
  </g>
  <g>
    <path class="cls-1" d="m222.79,273.88c-1.96,0-3.78-.24-5.48-.72-1.7-.48-3.21-1.15-4.54-2.02-1.33-.87-2.43-1.83-3.29-2.91-.87-1.07-1.43-2.19-1.69-3.38l7.42-2.21c.48,1.26,1.33,2.33,2.55,3.24,1.22.91,2.75,1.38,4.59,1.41,1.96.04,3.55-.39,4.79-1.27s1.85-2.03,1.85-3.43c0-1.22-.49-2.24-1.47-3.07-.98-.83-2.32-1.47-4.01-1.91l-5.04-1.33c-1.88-.48-3.54-1.21-4.98-2.19-1.44-.98-2.57-2.19-3.38-3.63-.81-1.44-1.22-3.12-1.22-5.04,0-3.65,1.21-6.5,3.63-8.55,2.42-2.05,5.84-3.07,10.27-3.07,2.47,0,4.64.36,6.5,1.08,1.86.72,3.42,1.74,4.68,3.07,1.25,1.33,2.21,2.9,2.88,4.71l-7.36,2.27c-.44-1.25-1.25-2.33-2.44-3.21-1.18-.89-2.68-1.33-4.48-1.33s-3.29.42-4.35,1.27c-1.05.85-1.58,2.05-1.58,3.6,0,1.22.42,2.18,1.25,2.88.83.7,1.96,1.24,3.4,1.61l5.09,1.27c3.32.81,5.9,2.27,7.75,4.37,1.84,2.1,2.77,4.45,2.77,7.03,0,2.29-.55,4.29-1.66,6.01-1.11,1.72-2.71,3.05-4.82,4.01-2.1.96-4.65,1.44-7.64,1.44Z"/>
    <path class="cls-1" d="m251.57,273.22v-31.83h-11.62v-6.92h30.78v6.92h-11.57v31.83h-7.58Z"/>
    <path class="cls-1" d="m275.71,273.22v-38.75h24.52v6.92h-16.94v8.8h14.61v6.75h-14.61v9.36h17.16v6.92h-24.74Z"/>
    <path class="cls-1" d="m308.31,273.22v-38.75h7.58v31.83h17.05v6.92h-24.63Z"/>
    <path class="cls-1" d="m338.04,273.22v-38.75h7.58v31.83h17.05v6.92h-24.63Z"/>
    <path class="cls-1" d="m364,273.22l15.28-38.75h7.58l-14.84,38.75h-8.03Zm7.2-8.52v-6.7h24.3v6.7h-24.3Zm23.42,8.52l-14.83-38.75h7.58l15.28,38.75h-8.03Z"/>
    <path class="cls-1" d="m407.29,273.22v-38.75h14.39c2.73,0,5.15.54,7.25,1.61,2.1,1.07,3.75,2.54,4.93,4.4s1.77,4.03,1.77,6.5-.62,4.6-1.85,6.5c-1.24,1.9-2.92,3.38-5.06,4.43-2.14,1.05-4.58,1.58-7.31,1.58h-6.53v13.73h-7.58Zm7.58-20.65h6.86c1.14,0,2.17-.24,3.07-.72.9-.48,1.62-1.14,2.16-1.99.54-.85.8-1.81.8-2.88,0-1.66-.6-3.01-1.8-4.04s-2.74-1.55-4.62-1.55h-6.48v11.18Zm13.73,20.65l-8.97-15.55,5.81-4.15,11.74,19.71h-8.58Z"/>
  </g>
</svg>