<svg width="377" height="136" viewBox="0 0 377 136" fill="none" xmlns="http://www.w3.org/2000/svg">
<path d="M19.7 106.2L10.6 135.9H0.200012L9.40001 106.2H19.7Z" fill="white"/>
<path d="M153.5 19.6C136.7 18.5 134.3 16 138.7 1.39999C138.9 0.799992 138 0.500004 137.8 1.1C130.9 16.1 126.7 18.5 108.6 19.3C108 19.3 108 20.3 108.6 20.3C130 20.4 126.5 29.2 121.8 45.1C121.6 45.7 122.5 46 122.7 45.4C130 29.2 135.3 22.5 153.7 20.6C154.2 20.6 154.1 19.7 153.5 19.6Z" fill="white"/>
<path d="M111.3 31.3L105 51.8H60.3H46.5L57.5 60.1L69.6 69.2L103 94.2C103.1 94.2 103.1 94.3 103.2 94.3L103.9 94.8C104.3 95.2 104.7 95.5 105.1 95.8C105.4 96.1 105.7 96.3 105.9 96.5C106.5 97.1 107 97.7 107.6 98.4C108.6 99.7 109.5 101.2 110.2 102.7C110.7 103.8 111 104.9 111.3 106C111.4 106.3 111.4 106.6 111.5 106.9C111.6 107.7 111.7 108.2 111.6 108.6C111.6 108.7 111.5 108.9 111.5 109C111.2 110.1 110.9 111.1 110.5 112.3C110.3 112.9 110.1 113.4 110 114L108.6 118.5L105.7 127.9L105.3 129.1L104.6 131.3H22.7L29 110.8H70.3H84.1L73.1 102.5L70.1 100.2L34.5 73.5L32.3 71.8C27.5 67.8 24.7 62.2 24.2 55.9C24.2 55.4 24.1 54.8 24.1 54.2C24.1 47.4 27.1 41 32.3 36.6C36.4 33.1 41.7 31.2 47.1 31.2H111.3M117.6 26.7H47.2C40.4 26.7 34.2 29.1 29.4 33.2C23.4 38.3 19.6 45.8 19.6 54.3C19.6 55 19.6 55.7 19.7 56.4C20.3 64.1 24 70.8 29.5 75.5L31.8 77.2L67.4 103.9L70.4 106.2H25.7L16.5 135.9H108C108 135.9 108.1 135.5 108.1 135.4C108.7 133.4 109.3 131.3 110 129.3C111 126.2 111.9 123 112.9 119.9C113.4 118.4 113.8 116.9 114.3 115.4C114.8 113.7 115.4 112 115.9 110.2C116 109.9 116 109.7 116.1 109.4C116.3 108.4 116.1 107.2 115.9 106.2C115.8 105.8 115.8 105.5 115.7 105.1C115.4 103.7 114.9 102.3 114.3 101C113.5 99.1 112.4 97.3 111.1 95.7C110.5 94.9 109.8 94.1 109.1 93.4C108.4 92.7 107.6 92.1 106.9 91.4C106.9 91.4 106.9 91.4 106.8 91.3L105.8 90.6C105.8 90.6 105.8 90.6 105.7 90.6L72.3 65.5L60.2 56.4H108.3L117.6 26.7Z" fill="white"/>
<path d="M161.8 106.9C159.8 106.9 158 106.7 156.3 106.2C154.6 105.7 153.1 105.1 151.8 104.2C150.5 103.3 149.4 102.4 148.5 101.3C147.6 100.2 147.1 99.1 146.8 97.9L154.2 95.7C154.7 97 155.5 98 156.8 98.9C158.1 99.8 159.6 100.3 161.4 100.3C163.4 100.3 165 99.9 166.2 99C167.4 98.1 168.1 97 168.1 95.6C168.1 94.4 167.6 93.4 166.6 92.5C165.6 91.7 164.3 91 162.6 90.6L157.6 89.3C155.7 88.8 154.1 88.1 152.6 87.1C151.1 86.1 150 84.9 149.2 83.5C148.4 82.1 148 80.4 148 78.5C148 74.9 149.2 72 151.6 69.9C154 67.8 157.4 66.8 161.9 66.8C164.4 66.8 166.5 67.2 168.4 67.9C170.3 68.6 171.8 69.6 173.1 71C174.3 72.3 175.3 73.9 176 75.7L168.6 78C168.2 76.8 167.3 75.7 166.2 74.8C165 73.9 163.5 73.5 161.7 73.5C159.9 73.5 158.4 73.9 157.3 74.8C156.2 75.7 155.7 76.9 155.7 78.4C155.7 79.6 156.1 80.6 156.9 81.3C157.7 82 158.9 82.5 160.3 82.9L165.4 84.2C168.7 85 171.3 86.5 173.2 88.6C175 90.7 176 93.1 176 95.6C176 97.9 175.4 99.9 174.3 101.6C173.2 103.3 171.6 104.6 169.5 105.6C167.3 106.4 164.8 106.9 161.8 106.9Z" fill="white"/>
<path d="M190.6 106.2V74.4H179V67.5H209.8V74.4H198.2V106.2H190.6Z" fill="white"/>
<path d="M214.7 106.2V67.4H239.2V74.3H222.3V83.1H236.9V89.9H222.3V99.3H239.5V106.2H214.7Z" fill="white"/>
<path d="M247.3 106.2V67.4H254.9V99.2H271.9V106.1H247.3V106.2Z" fill="white"/>
<path d="M277 106.2V67.4H284.6V99.2H301.6V106.1H277V106.2Z" fill="white"/>
<path d="M303 106.2L318.3 67.4H325.9L311 106.2H303ZM310.2 97.7V91H334.5V97.7H310.2ZM333.6 106.2L318.8 67.4H326.4L341.7 106.2H333.6Z" fill="white"/>
<path d="M346.3 106.2V67.4H360.7C363.4 67.4 365.8 67.9 367.9 69C370 70.1 371.7 71.5 372.8 73.4C373.9 75.3 374.6 77.4 374.6 79.9C374.6 82.4 374 84.5 372.7 86.4C371.5 88.3 369.8 89.8 367.6 90.8C365.5 91.8 363 92.4 360.3 92.4H353.8V106.1H346.3V106.2ZM353.9 85.6H360.8C361.9 85.6 363 85.4 363.9 84.9C364.8 84.4 365.5 83.8 366.1 82.9C366.7 82 366.9 81.1 366.9 80C366.9 78.3 366.3 77 365.1 76C363.9 75 362.4 74.4 360.5 74.4H354L353.9 85.6ZM367.6 106.2L358.6 90.7L364.4 86.6L376.1 106.3L367.6 106.2Z" fill="white"/>
</svg>
