<?xml version="1.0" encoding="UTF-8"?>
<svg id="Layer_1" data-name="Layer 1" xmlns="http://www.w3.org/2000/svg" viewBox="0 0 500 500">
  <defs>
    <style>
      .cls-1 {
        fill: #fff;
        stroke-width: 0px;
      }
    </style>
  </defs>
  <path class="cls-1" d="m342.82,167.94l-13.78,44.71h-89l7.2,5.4s20.69,15.53,20.69,15.53c3.99,2.99,7.97,5.98,11.96,8.98,8.05,6.05,16.11,12.09,24.16,18.14,6.26,4.7,12.68,9.25,18.81,14.12,3.83,3.05,7.6,5.85,10.65,9.78,3.53,4.55,6.09,9.85,7.38,15.46,1.06,4.61-.12,8.34-1.53,12.71-.3.94-.61,1.88-.9,2.83l-1.18,3.84-1.18,3.84-4.96,16.09-1.6,5.19-1.2,3.89h-149.95l13.78-44.72h83.08l-7.18-5.4-5.12-3.85-60.79-45.63-3.91-2.93c-9.2-7.73-14.76-18.55-15.65-30.49-.08-1.06-.12-2.18-.12-3.33,0-13.05,5.73-25.36,15.72-33.77,7.93-6.69,18.02-10.38,28.43-10.38h116.2m4.06-3h-120.27c-11.57,0-22.16,4.16-30.36,11.08-10.26,8.64-16.78,21.59-16.78,36.06,0,1.2.04,2.38.13,3.56.98,13.08,7.29,24.67,16.77,32.61l3.98,2.98,60.79,45.63,5.11,3.84h-76.32l-15.63,50.72h156.23s.24-.76.25-.81c1.07-3.46,2.13-6.92,3.2-10.38l4.96-16.09c.79-2.56,1.58-5.13,2.37-7.69.91-2.94,1.95-5.87,2.71-8.86.12-.46.22-.92.3-1.39.89-5.84-2.03-12.88-4.79-17.9-4.27-7.79-10.91-12.93-17.82-18.12-6.63-4.97-13.25-9.95-19.88-14.92-7.35-5.51-14.69-11.03-22.04-16.54-3.35-2.52-6.71-5.04-10.06-7.55l-20.69-15.53h82.22l15.63-50.71Z"/>
  <polygon class="cls-1" points="179.83 300.71 164.2 351.43 146.5 351.43 162.13 300.71 179.83 300.71"/>
  <path class="cls-1" d="m408.33,152.85c-28.75-1.87-32.79-6.16-25.34-31.05.3-.99-1.13-1.52-1.56-.58-11.81,25.58-19,29.69-49.9,31.06-1.02.05-1.09,1.66-.07,1.66,36.5.22,30.58,15.13,22.47,42.37-.3,1,1.14,1.53,1.57.58,12.39-27.72,21.61-39.17,52.89-42.37,1.02-.1.98-1.6-.04-1.66Z"/>
</svg>