<svg width="236" height="232" viewBox="0 0 236 232" fill="none" xmlns="http://www.w3.org/2000/svg">
<path d="M170.04 180.72C170.38 182.53 170.59 184.41 170.32 186.21C170.25 186.68 170.14 187.14 170.02 187.6C169.26 190.59 168.22 193.51 167.31 196.46C166.52 199.02 165.73 201.59 164.94 204.15C163.29 209.51 161.64 214.87 159.98 220.24C158.91 223.7 157.85 227.16 156.78 230.62C156.76 230.67 156.57 231.43 156.53 231.43H0.299988L15.93 180.71H92.25L87.14 176.87L26.35 131.24L22.37 128.26C12.88 120.32 6.56999 108.73 5.59999 95.6499C5.50999 94.4699 5.46999 93.2799 5.46999 92.09C5.46999 77.61 11.99 64.67 22.25 56.03C30.45 49.11 41.05 44.95 52.61 44.95H172.88L157.25 95.66H75.03L95.72 111.19L152.77 154.02C152.77 154.02 152.85 154.08 152.89 154.1L154.54 155.34C154.54 155.34 154.62 155.4 154.65 155.43C155.86 156.64 157.28 157.64 158.49 158.86C159.73 160.1 160.88 161.42 161.96 162.81C164.12 165.6 165.94 168.65 167.35 171.88C168.34 174.15 169.14 176.5 169.67 178.92C169.8 179.51 169.93 180.12 170.04 180.73V180.72Z" fill="white"/>
<path d="M234.33 32.85C205.58 30.98 201.54 26.69 208.99 1.80002C209.29 0.81002 207.86 0.280018 207.43 1.22002C195.62 26.8 188.43 30.91 157.53 32.28C156.51 32.33 156.44 33.94 157.46 33.94C193.96 34.16 188.04 49.07 179.93 76.31C179.63 77.31 181.07 77.84 181.5 76.89C193.89 49.17 203.11 37.72 234.39 34.52C235.41 34.42 235.37 32.92 234.35 32.86L234.33 32.85Z" fill="#4461F2"/>
</svg>
