<?xml version="1.0" encoding="UTF-8"?>
<svg id="Layer_1" data-name="Layer 1" xmlns="http://www.w3.org/2000/svg" viewBox="0 0 500 500">
  <defs>
    <style>
      .cls-1 {
        fill: #fff;
      }

      .cls-1, .cls-2 {
        stroke-width: 0px;
      }

      .cls-2 {
        fill: #4461f2;
      }
    </style>
  </defs>
  <path class="cls-1" d="m344.04,300.72c.34,1.81.55,3.69.28,5.49-.07.47-.18.93-.3,1.39-.76,2.99-1.8,5.91-2.71,8.86-.79,2.56-1.58,5.13-2.37,7.69-1.65,5.36-3.3,10.72-4.96,16.09-1.07,3.46-2.13,6.92-3.2,10.38-.02.05-.21.81-.25.81h-156.23l15.63-50.72h76.32l-5.11-3.84-60.79-45.63-3.98-2.98c-9.49-7.94-15.8-19.53-16.77-32.61-.09-1.18-.13-2.37-.13-3.56,0-14.48,6.52-27.42,16.78-36.06,8.2-6.92,18.8-11.08,30.36-11.08h120.27l-15.63,50.71h-82.22l20.69,15.53,57.05,42.83s.08.06.12.08l1.65,1.24s.08.06.11.09c1.21,1.21,2.63,2.21,3.84,3.43,1.24,1.24,2.39,2.56,3.47,3.95,2.16,2.79,3.98,5.84,5.39,9.07.99,2.27,1.79,4.62,2.32,7.04.13.59.26,1.2.37,1.81Z"/>
  <polygon class="cls-2" points="179.83 300.71 164.2 351.43 146.5 351.43 162.13 300.71 179.83 300.71"/>
  <path class="cls-2" d="m408.33,152.85c-28.75-1.87-32.79-6.16-25.34-31.05.3-.99-1.13-1.52-1.56-.58-11.81,25.58-19,29.69-49.9,31.06-1.02.05-1.09,1.66-.07,1.66,36.5.22,30.58,15.13,22.47,42.37-.3,1,1.14,1.53,1.57.58,12.39-27.72,21.61-39.17,52.89-42.37,1.02-.1.98-1.6-.04-1.66Z"/>
</svg>