<svg width="1346" height="522" viewBox="0 0 1346 522" fill="none" xmlns="http://www.w3.org/2000/svg">
<path d="M1284 166H115C115 166 378.469 500.942 681.61 505.946C984.751 510.95 1284 166 1284 166Z" fill="#0B103D"/>
<path d="M11.9703 188.31C4.58381 175.777 4.58382 160.223 11.9703 147.69L74.1451 42.1977C81.3362 29.9967 94.4428 22.5077 108.605 22.5077L234.395 22.5077C248.557 22.5077 261.664 29.9967 268.855 42.1977L331.03 147.69C338.416 160.223 338.416 175.777 331.03 188.31L268.855 293.802C261.664 306.003 248.557 313.492 234.395 313.492L108.605 313.492C94.4429 313.492 81.3362 306.003 74.1452 293.802L11.9703 188.31Z" fill="#EDF0F7" fill-opacity="0.07"/>
<path d="M181.43 376.826L230.314 291.51C235.036 283.269 243.808 278.185 253.307 278.185L350.693 278.185C360.192 278.185 368.964 283.269 373.686 291.51L422.57 376.826C427.246 384.986 427.246 395.014 422.57 403.175L373.686 488.49C368.964 496.731 360.192 501.815 350.693 501.815L253.307 501.815C243.808 501.815 235.036 496.732 230.314 488.49L181.43 403.175C176.754 395.014 176.754 384.986 181.43 376.826Z" stroke="white" stroke-width="5"/>
<path d="M1014.97 278.31C1007.58 265.777 1007.58 250.223 1014.97 237.69L1077.15 132.198C1084.34 119.997 1097.44 112.508 1111.61 112.508L1237.39 112.508C1251.56 112.508 1264.66 119.997 1271.85 132.198L1334.03 237.69C1341.42 250.223 1341.42 265.777 1334.03 278.31L1271.85 383.802C1264.66 396.003 1251.56 403.492 1237.39 403.492L1111.61 403.492C1097.44 403.492 1084.34 396.003 1077.15 383.802L1014.97 278.31Z" fill="#EDF0F7" fill-opacity="0.07"/>
<g opacity="0.8" filter="url(#filter0_d_1_24)">
<ellipse cx="700" cy="336.5" rx="121" ry="111.5" fill="#EDF0F7"/>
</g>
<g filter="url(#filter1_d_1_24)">
<path d="M699.5 330C704.755 330 709.893 328.592 714.262 325.955C718.632 323.318 722.038 319.57 724.049 315.184C726.06 310.799 726.586 305.973 725.561 301.318C724.536 296.662 722.005 292.386 718.289 289.029C714.573 285.673 709.838 283.387 704.684 282.461C699.529 281.535 694.187 282.01 689.332 283.827C684.476 285.643 680.326 288.72 677.407 292.666C674.487 296.613 672.929 301.253 672.929 306C672.929 312.365 675.728 318.47 680.711 322.971C685.694 327.471 692.453 330 699.5 330ZM739.357 390C741.119 390 742.809 389.368 744.054 388.243C745.3 387.117 746 385.591 746 384C746 372.861 741.101 362.178 732.38 354.302C723.66 346.425 711.833 342 699.5 342C687.167 342 675.34 346.425 666.62 354.302C657.899 362.178 653 372.861 653 384C653 385.591 653.7 387.117 654.946 388.243C656.191 389.368 657.881 390 659.643 390H739.357Z" fill="#EDF0F7"/>
</g>
<defs>
<filter id="filter0_d_1_24" x="575" y="225" width="250" height="231" filterUnits="userSpaceOnUse" color-interpolation-filters="sRGB">
<feFlood flood-opacity="0" result="BackgroundImageFix"/>
<feColorMatrix in="SourceAlpha" type="matrix" values="0 0 0 0 0 0 0 0 0 0 0 0 0 0 0 0 0 0 127 0" result="hardAlpha"/>
<feOffset dy="4"/>
<feGaussianBlur stdDeviation="2"/>
<feComposite in2="hardAlpha" operator="out"/>
<feColorMatrix type="matrix" values="0 0 0 0 0 0 0 0 0 0 0 0 0 0 0 0 0 0 0.25 0"/>
<feBlend mode="normal" in2="BackgroundImageFix" result="effect1_dropShadow_1_24"/>
<feBlend mode="normal" in="SourceGraphic" in2="effect1_dropShadow_1_24" result="shape"/>
</filter>
<filter id="filter1_d_1_24" x="649" y="282" width="101" height="116" filterUnits="userSpaceOnUse" color-interpolation-filters="sRGB">
<feFlood flood-opacity="0" result="BackgroundImageFix"/>
<feColorMatrix in="SourceAlpha" type="matrix" values="0 0 0 0 0 0 0 0 0 0 0 0 0 0 0 0 0 0 127 0" result="hardAlpha"/>
<feOffset dy="4"/>
<feGaussianBlur stdDeviation="2"/>
<feComposite in2="hardAlpha" operator="out"/>
<feColorMatrix type="matrix" values="0 0 0 0 0 0 0 0 0 0 0 0 0 0 0 0 0 0 0.25 0"/>
<feBlend mode="normal" in2="BackgroundImageFix" result="effect1_dropShadow_1_24"/>
<feBlend mode="normal" in="SourceGraphic" in2="effect1_dropShadow_1_24" result="shape"/>
</filter>
</defs>
</svg>
