<svg width="877" height="251" viewBox="0 0 877 251" fill="none" xmlns="http://www.w3.org/2000/svg">
<path d="M877 0H0C0 0 211.596 247.266 428.323 250.96C645.051 254.654 877 0 877 0Z" fill="#2A2760"/>
<g opacity="0.8" filter="url(#filter0_d_133_158)">
<ellipse cx="437.5" cy="125.5" rx="83.5" ry="76.5" fill="#EDF0F7"/>
</g>
<g filter="url(#filter1_d_133_158)">
<path d="M438.5 121C442.625 121 446.658 119.944 450.088 117.966C453.518 115.989 456.191 113.177 457.769 109.888C459.348 106.599 459.761 102.98 458.956 99.4884C458.152 95.9967 456.165 92.7894 453.248 90.2721C450.331 87.7547 446.615 86.0404 442.569 85.3459C438.523 84.6513 434.329 85.0078 430.518 86.3702C426.707 87.7326 423.45 90.0397 421.158 92.9997C418.866 95.9598 417.643 99.4399 417.643 103C417.643 107.774 419.84 112.352 423.752 115.728C427.663 119.104 432.968 121 438.5 121ZM469.786 166C471.169 166 472.495 165.526 473.473 164.682C474.451 163.838 475 162.693 475 161.5C475 153.146 471.154 145.134 464.309 139.226C457.464 133.319 448.18 130 438.5 130C428.82 130 419.536 133.319 412.691 139.226C405.846 145.134 402 153.146 402 161.5C402 162.693 402.549 163.838 403.527 164.682C404.505 165.526 405.831 166 407.214 166H469.786Z" fill="#EDF0F7"/>
</g>
<defs>
<filter id="filter0_d_133_158" x="350" y="49" width="175" height="161" filterUnits="userSpaceOnUse" color-interpolation-filters="sRGB">
<feFlood flood-opacity="0" result="BackgroundImageFix"/>
<feColorMatrix in="SourceAlpha" type="matrix" values="0 0 0 0 0 0 0 0 0 0 0 0 0 0 0 0 0 0 127 0" result="hardAlpha"/>
<feOffset dy="4"/>
<feGaussianBlur stdDeviation="2"/>
<feComposite in2="hardAlpha" operator="out"/>
<feColorMatrix type="matrix" values="0 0 0 0 0 0 0 0 0 0 0 0 0 0 0 0 0 0 0.25 0"/>
<feBlend mode="normal" in2="BackgroundImageFix" result="effect1_dropShadow_133_158"/>
<feBlend mode="normal" in="SourceGraphic" in2="effect1_dropShadow_133_158" result="shape"/>
</filter>
<filter id="filter1_d_133_158" x="398" y="85" width="81" height="89" filterUnits="userSpaceOnUse" color-interpolation-filters="sRGB">
<feFlood flood-opacity="0" result="BackgroundImageFix"/>
<feColorMatrix in="SourceAlpha" type="matrix" values="0 0 0 0 0 0 0 0 0 0 0 0 0 0 0 0 0 0 127 0" result="hardAlpha"/>
<feOffset dy="4"/>
<feGaussianBlur stdDeviation="2"/>
<feComposite in2="hardAlpha" operator="out"/>
<feColorMatrix type="matrix" values="0 0 0 0 0 0 0 0 0 0 0 0 0 0 0 0 0 0 0.25 0"/>
<feBlend mode="normal" in2="BackgroundImageFix" result="effect1_dropShadow_133_158"/>
<feBlend mode="normal" in="SourceGraphic" in2="effect1_dropShadow_133_158" result="shape"/>
</filter>
</defs>
</svg>
